<svg height="2286" width="720" xmlns="http://www.w3.org/2000/svg">
<rect height="2286" fill="#555" width="720"></rect>
<text fill="#7f7" font-family="Courier New" font-size="12" xml:space="preserve">
<tspan x="10" y="26">24 megabytes installed</tspan>
<tspan x="10" y="42"></tspan>
<tspan x="10" y="58">node_modules</tspan>
<tspan x="10" y="74">└─┬ eslint@3.19.0 </tspan>
<tspan x="10" y="90">  ├─┬ babel-code-frame@6.22.0 </tspan>
<tspan x="10" y="106">  │ └── js-tokens@3.0.1 </tspan>
<tspan x="10" y="122">  ├─┬ chalk@1.1.3 </tspan>
<tspan x="10" y="138">  │ ├── ansi-styles@2.2.1 </tspan>
<tspan x="10" y="154">  │ ├── escape-string-regexp@1.0.5 </tspan>
<tspan x="10" y="170">  │ ├── has-ansi@2.0.0 </tspan>
<tspan x="10" y="186">  │ ├── strip-ansi@3.0.1 </tspan>
<tspan x="10" y="202">  │ └── supports-color@2.0.0 </tspan>
<tspan x="10" y="218">  ├─┬ concat-stream@1.6.0 </tspan>
<tspan x="10" y="234">  │ ├── inherits@2.0.3 </tspan>
<tspan x="10" y="250">  │ ├─┬ readable-stream@2.2.9 </tspan>
<tspan x="10" y="266">  │ │ ├── buffer-shims@1.0.0 </tspan>
<tspan x="10" y="282">  │ │ ├── core-util-is@1.0.2 </tspan>
<tspan x="10" y="298">  │ │ ├── process-nextick-args@1.0.7 </tspan>
<tspan x="10" y="314">  │ │ ├── string_decoder@1.0.0 </tspan>
<tspan x="10" y="330">  │ │ └── util-deprecate@1.0.2 </tspan>
<tspan x="10" y="346">  │ └── typedarray@0.0.6 </tspan>
<tspan x="10" y="362">  ├─┬ debug@2.6.3 </tspan>
<tspan x="10" y="378">  │ └── ms@0.7.2 </tspan>
<tspan x="10" y="394">  ├─┬ doctrine@2.0.0 </tspan>
<tspan x="10" y="410">  │ └── isarray@1.0.0 </tspan>
<tspan x="10" y="426">  ├─┬ escope@3.6.0 </tspan>
<tspan x="10" y="442">  │ ├─┬ es6-map@0.1.5 </tspan>
<tspan x="10" y="458">  │ │ ├── d@1.0.0 </tspan>
<tspan x="10" y="474">  │ │ ├── es5-ext@0.10.15 </tspan>
<tspan x="10" y="490">  │ │ ├── es6-iterator@2.0.1 </tspan>
<tspan x="10" y="506">  │ │ ├── es6-set@0.1.5 </tspan>
<tspan x="10" y="522">  │ │ ├── es6-symbol@3.1.1 </tspan>
<tspan x="10" y="538">  │ │ └── event-emitter@0.3.5 </tspan>
<tspan x="10" y="554">  │ ├── es6-weak-map@2.0.2 </tspan>
<tspan x="10" y="570">  │ └─┬ esrecurse@4.1.0 </tspan>
<tspan x="10" y="586">  │   └── estraverse@4.1.1 </tspan>
<tspan x="10" y="602">  ├─┬ espree@3.4.1 </tspan>
<tspan x="10" y="618">  │ ├── acorn@5.0.3 </tspan>
<tspan x="10" y="634">  │ └─┬ acorn-jsx@3.0.1 </tspan>
<tspan x="10" y="650">  │   └── acorn@3.3.0 </tspan>
<tspan x="10" y="666">  ├── esquery@1.0.0 </tspan>
<tspan x="10" y="682">  ├── estraverse@4.2.0 </tspan>
<tspan x="10" y="698">  ├── esutils@2.0.2 </tspan>
<tspan x="10" y="714">  ├─┬ file-entry-cache@2.0.0 </tspan>
<tspan x="10" y="730">  │ ├─┬ flat-cache@1.2.2 </tspan>
<tspan x="10" y="746">  │ │ ├── circular-json@0.3.1 </tspan>
<tspan x="10" y="762">  │ │ ├─┬ del@2.2.2 </tspan>
<tspan x="10" y="778">  │ │ │ ├─┬ globby@5.0.0 </tspan>
<tspan x="10" y="794">  │ │ │ │ ├─┬ array-union@1.0.2 </tspan>
<tspan x="10" y="810">  │ │ │ │ │ └── array-uniq@1.0.3 </tspan>
<tspan x="10" y="826">  │ │ │ │ └── arrify@1.0.1 </tspan>
<tspan x="10" y="842">  │ │ │ ├── is-path-cwd@1.0.0 </tspan>
<tspan x="10" y="858">  │ │ │ ├─┬ is-path-in-cwd@1.0.0 </tspan>
<tspan x="10" y="874">  │ │ │ │ └── is-path-inside@1.0.0 </tspan>
<tspan x="10" y="890">  │ │ │ ├── pify@2.3.0 </tspan>
<tspan x="10" y="906">  │ │ │ ├─┬ pinkie-promise@2.0.1 </tspan>
<tspan x="10" y="922">  │ │ │ │ └── pinkie@2.0.4 </tspan>
<tspan x="10" y="938">  │ │ │ └── rimraf@2.6.1 </tspan>
<tspan x="10" y="954">  │ │ ├── graceful-fs@4.1.11 </tspan>
<tspan x="10" y="970">  │ │ └── write@0.2.1 </tspan>
<tspan x="10" y="986">  │ └── object-assign@4.1.1 </tspan>
<tspan x="10" y="1002">  ├─┬ glob@7.1.1 </tspan>
<tspan x="10" y="1018">  │ ├── fs.realpath@1.0.0 </tspan>
<tspan x="10" y="1034">  │ ├─┬ inflight@1.0.6 </tspan>
<tspan x="10" y="1050">  │ │ └── wrappy@1.0.2 </tspan>
<tspan x="10" y="1066">  │ ├─┬ minimatch@3.0.3 </tspan>
<tspan x="10" y="1082">  │ │ └─┬ brace-expansion@1.1.7 </tspan>
<tspan x="10" y="1098">  │ │   ├── balanced-match@0.4.2 </tspan>
<tspan x="10" y="1114">  │ │   └── concat-map@0.0.1 </tspan>
<tspan x="10" y="1130">  │ ├── once@1.4.0 </tspan>
<tspan x="10" y="1146">  │ └── path-is-absolute@1.0.1 </tspan>
<tspan x="10" y="1162">  ├── globals@9.17.0 </tspan>
<tspan x="10" y="1178">  ├── ignore@3.2.7 </tspan>
<tspan x="10" y="1194">  ├── imurmurhash@0.1.4 </tspan>
<tspan x="10" y="1210">  ├─┬ inquirer@0.12.0 </tspan>
<tspan x="10" y="1226">  │ ├── ansi-escapes@1.4.0 </tspan>
<tspan x="10" y="1242">  │ ├── ansi-regex@2.1.1 </tspan>
<tspan x="10" y="1258">  │ ├─┬ cli-cursor@1.0.2 </tspan>
<tspan x="10" y="1274">  │ │ └─┬ restore-cursor@1.0.1 </tspan>
<tspan x="10" y="1290">  │ │   ├── exit-hook@1.1.1 </tspan>
<tspan x="10" y="1306">  │ │   └── onetime@1.1.0 </tspan>
<tspan x="10" y="1322">  │ ├── cli-width@2.1.0 </tspan>
<tspan x="10" y="1338">  │ ├── figures@1.7.0 </tspan>
<tspan x="10" y="1354">  │ ├─┬ readline2@1.0.1 </tspan>
<tspan x="10" y="1370">  │ │ ├── code-point-at@1.1.0 </tspan>
<tspan x="10" y="1386">  │ │ ├─┬ is-fullwidth-code-point@1.0.0 </tspan>
<tspan x="10" y="1402">  │ │ │ └── number-is-nan@1.0.1 </tspan>
<tspan x="10" y="1418">  │ │ └── mute-stream@0.0.5 </tspan>
<tspan x="10" y="1434">  │ ├── run-async@0.1.0 </tspan>
<tspan x="10" y="1450">  │ ├── rx-lite@3.1.2 </tspan>
<tspan x="10" y="1466">  │ ├── string-width@1.0.2 </tspan>
<tspan x="10" y="1482">  │ └── through@2.3.8 </tspan>
<tspan x="10" y="1498">  ├─┬ is-my-json-valid@2.16.0 </tspan>
<tspan x="10" y="1514">  │ ├── generate-function@2.0.0 </tspan>
<tspan x="10" y="1530">  │ ├─┬ generate-object-property@1.2.0 </tspan>
<tspan x="10" y="1546">  │ │ └── is-property@1.0.2 </tspan>
<tspan x="10" y="1562">  │ ├── jsonpointer@4.0.1 </tspan>
<tspan x="10" y="1578">  │ └── xtend@4.0.1 </tspan>
<tspan x="10" y="1594">  ├─┬ is-resolvable@1.0.0 </tspan>
<tspan x="10" y="1610">  │ └── tryit@1.0.3 </tspan>
<tspan x="10" y="1626">  ├─┬ js-yaml@3.8.3 </tspan>
<tspan x="10" y="1642">  │ ├─┬ argparse@1.0.9 </tspan>
<tspan x="10" y="1658">  │ │ └── sprintf-js@1.0.3 </tspan>
<tspan x="10" y="1674">  │ └── esprima@3.1.3 </tspan>
<tspan x="10" y="1690">  ├─┬ json-stable-stringify@1.0.1 </tspan>
<tspan x="10" y="1706">  │ └── jsonify@0.0.0 </tspan>
<tspan x="10" y="1722">  ├─┬ levn@0.3.0 </tspan>
<tspan x="10" y="1738">  │ ├── prelude-ls@1.1.2 </tspan>
<tspan x="10" y="1754">  │ └── type-check@0.3.2 </tspan>
<tspan x="10" y="1770">  ├── lodash@4.17.4 </tspan>
<tspan x="10" y="1786">  ├─┬ mkdirp@0.5.1 </tspan>
<tspan x="10" y="1802">  │ └── minimist@0.0.8 </tspan>
<tspan x="10" y="1818">  ├── natural-compare@1.4.0 </tspan>
<tspan x="10" y="1834">  ├─┬ optionator@0.8.2 </tspan>
<tspan x="10" y="1850">  │ ├── deep-is@0.1.3 </tspan>
<tspan x="10" y="1866">  │ ├── fast-levenshtein@2.0.6 </tspan>
<tspan x="10" y="1882">  │ └── wordwrap@1.0.0 </tspan>
<tspan x="10" y="1898">  ├── path-is-inside@1.0.2 </tspan>
<tspan x="10" y="1914">  ├── pluralize@1.2.1 </tspan>
<tspan x="10" y="1930">  ├── progress@1.1.8 </tspan>
<tspan x="10" y="1946">  ├─┬ require-uncached@1.0.3 </tspan>
<tspan x="10" y="1962">  │ ├─┬ caller-path@0.1.0 </tspan>
<tspan x="10" y="1978">  │ │ └── callsites@0.2.0 </tspan>
<tspan x="10" y="1994">  │ └── resolve-from@1.0.1 </tspan>
<tspan x="10" y="2010">  ├─┬ shelljs@0.7.7 </tspan>
<tspan x="10" y="2026">  │ ├── interpret@1.0.2 </tspan>
<tspan x="10" y="2042">  │ └─┬ rechoir@0.6.2 </tspan>
<tspan x="10" y="2058">  │   └─┬ resolve@1.3.2 </tspan>
<tspan x="10" y="2074">  │     └── path-parse@1.0.5 </tspan>
<tspan x="10" y="2090">  ├── strip-bom@3.0.0 </tspan>
<tspan x="10" y="2106">  ├── strip-json-comments@2.0.1 </tspan>
<tspan x="10" y="2122">  ├─┬ table@3.8.3 </tspan>
<tspan x="10" y="2138">  │ ├─┬ ajv@4.11.7 </tspan>
<tspan x="10" y="2154">  │ │ └── co@4.6.0 </tspan>
<tspan x="10" y="2170">  │ ├── ajv-keywords@1.5.1 </tspan>
<tspan x="10" y="2186">  │ ├── slice-ansi@0.0.4 </tspan>
<tspan x="10" y="2202">  │ └─┬ string-width@2.0.0 </tspan>
<tspan x="10" y="2218">  │   └── is-fullwidth-code-point@2.0.0 </tspan>
<tspan x="10" y="2234">  ├── text-table@0.2.0 </tspan>
<tspan x="10" y="2250">  └─┬ user-home@2.0.0 </tspan>
<tspan x="10" y="2266">    └── os-homedir@1.0.2</tspan>
</text>
</svg>
